<svg width="562" height="392" viewBox="0 0 562 392" fill="none" xmlns="http://www.w3.org/2000/svg">
<path d="M7.854 24.176C7.458 24.176 7.128 24.088 6.864 23.912C6.61467 23.7213 6.40933 23.4427 6.248 23.076L0.506 10.184C0.344667 9.81733 0.300667 9.49467 0.374 9.216C0.447333 8.93733 0.601333 8.71733 0.836 8.556C1.07067 8.39467 1.34933 8.314 1.672 8.314C2.09733 8.314 2.41267 8.40933 2.618 8.6C2.838 8.776 3.02133 9.04733 3.168 9.414L8.382 21.492H7.436L12.628 9.392C12.7893 9.04 12.98 8.776 13.2 8.6C13.42 8.40933 13.728 8.314 14.124 8.314C14.4467 8.314 14.7107 8.39467 14.916 8.556C15.136 8.71733 15.2753 8.93733 15.334 9.216C15.3927 9.49467 15.3413 9.81733 15.18 10.184L9.438 23.076C9.27667 23.4427 9.07133 23.7213 8.822 23.912C8.58733 24.088 8.26467 24.176 7.854 24.176ZM20.6446 24.22C19.5299 24.22 18.5619 23.9927 17.7406 23.538C16.9193 23.0833 16.2813 22.438 15.8266 21.602C15.3719 20.7513 15.1446 19.754 15.1446 18.61C15.1446 17.7447 15.2693 16.9747 15.5186 16.3C15.7826 15.6107 16.1566 15.024 16.6406 14.54C17.1246 14.0413 17.7039 13.6673 18.3786 13.418C19.0533 13.154 19.8086 13.022 20.6446 13.022C21.7593 13.022 22.7273 13.2493 23.5486 13.704C24.3699 14.1587 25.0079 14.804 25.4626 15.64C25.9173 16.476 26.1446 17.466 26.1446 18.61C26.1446 19.4753 26.0126 20.2527 25.7486 20.942C25.4993 21.6313 25.1326 22.2253 24.6486 22.724C24.1646 23.208 23.5853 23.582 22.9106 23.846C22.2359 24.0953 21.4806 24.22 20.6446 24.22ZM20.6446 22.13C21.1873 22.13 21.6639 21.998 22.0746 21.734C22.4853 21.47 22.8006 21.0813 23.0206 20.568C23.2553 20.04 23.3726 19.3873 23.3726 18.61C23.3726 17.4367 23.1233 16.564 22.6246 15.992C22.1259 15.4053 21.4659 15.112 20.6446 15.112C20.1019 15.112 19.6253 15.244 19.2146 15.508C18.8039 15.7573 18.4813 16.146 18.2466 16.674C18.0266 17.1873 17.9166 17.8327 17.9166 18.61C17.9166 19.7687 18.1659 20.6487 18.6646 21.25C19.1633 21.8367 19.8233 22.13 20.6446 22.13ZM33.3864 24.22C32.257 24.22 31.2744 23.9927 30.4384 23.538C29.6024 23.0687 28.957 22.4087 28.5024 21.558C28.0477 20.7073 27.8204 19.71 27.8204 18.566C27.8204 17.7007 27.945 16.9307 28.1944 16.256C28.4584 15.5667 28.8324 14.9873 29.3164 14.518C29.8004 14.034 30.387 13.6673 31.0764 13.418C31.7657 13.154 32.5357 13.022 33.3864 13.022C33.8704 13.022 34.391 13.088 34.9484 13.22C35.5204 13.352 36.0557 13.572 36.5544 13.88C36.789 14.0267 36.943 14.2027 37.0164 14.408C37.0897 14.6133 37.1044 14.826 37.0604 15.046C37.0164 15.2513 36.921 15.4347 36.7744 15.596C36.6424 15.7427 36.4737 15.838 36.2684 15.882C36.063 15.9113 35.8357 15.86 35.5864 15.728C35.2637 15.5373 34.9337 15.398 34.5964 15.31C34.259 15.2073 33.9364 15.156 33.6284 15.156C33.1444 15.156 32.719 15.2367 32.3524 15.398C31.9857 15.5447 31.6704 15.7647 31.4064 16.058C31.157 16.3367 30.9664 16.6887 30.8344 17.114C30.7024 17.5393 30.6364 18.0307 30.6364 18.588C30.6364 19.6733 30.893 20.5313 31.4064 21.162C31.9344 21.778 32.675 22.086 33.6284 22.086C33.9364 22.086 34.2517 22.042 34.5744 21.954C34.9117 21.866 35.249 21.7267 35.5864 21.536C35.8357 21.404 36.0557 21.36 36.2464 21.404C36.4517 21.448 36.6204 21.5507 36.7524 21.712C36.8844 21.8587 36.965 22.042 36.9944 22.262C37.0237 22.4673 36.9944 22.6727 36.9064 22.878C36.833 23.0833 36.6864 23.252 36.4664 23.384C35.9824 23.6773 35.469 23.89 34.9264 24.022C34.3837 24.154 33.8704 24.22 33.3864 24.22ZM43.8785 24.22C42.6612 24.22 41.6125 23.9927 40.7325 23.538C39.8525 23.0833 39.1705 22.438 38.6865 21.602C38.2172 20.766 37.9825 19.776 37.9825 18.632C37.9825 17.5173 38.2098 16.542 38.6645 15.706C39.1338 14.87 39.7718 14.2173 40.5785 13.748C41.3998 13.264 42.3312 13.022 43.3725 13.022C44.1352 13.022 44.8172 13.1467 45.4185 13.396C46.0345 13.6453 46.5552 14.0047 46.9805 14.474C47.4205 14.9433 47.7505 15.5153 47.9705 16.19C48.2052 16.85 48.3225 17.598 48.3225 18.434C48.3225 18.698 48.2272 18.9033 48.0365 19.05C47.8605 19.182 47.6038 19.248 47.2665 19.248H40.2045V17.664H46.3865L46.0345 17.994C46.0345 17.3193 45.9318 16.7547 45.7265 16.3C45.5358 15.8453 45.2498 15.5007 44.8685 15.266C44.5018 15.0167 44.0398 14.892 43.4825 14.892C42.8665 14.892 42.3385 15.0387 41.8985 15.332C41.4732 15.6107 41.1432 16.014 40.9085 16.542C40.6885 17.0553 40.5785 17.6713 40.5785 18.39V18.544C40.5785 19.7467 40.8572 20.6487 41.4145 21.25C41.9865 21.8367 42.8225 22.13 43.9225 22.13C44.3038 22.13 44.7292 22.086 45.1985 21.998C45.6825 21.8953 46.1372 21.7267 46.5625 21.492C46.8705 21.316 47.1418 21.2427 47.3765 21.272C47.6112 21.2867 47.7945 21.3673 47.9265 21.514C48.0732 21.6607 48.1612 21.844 48.1905 22.064C48.2198 22.2693 48.1758 22.482 48.0585 22.702C47.9558 22.922 47.7725 23.1127 47.5085 23.274C46.9952 23.5967 46.4012 23.8387 45.7265 24C45.0665 24.1467 44.4505 24.22 43.8785 24.22ZM46.5185 10.866C46.6505 11.1007 46.6798 11.3133 46.6065 11.504C46.5332 11.6947 46.4085 11.8413 46.2325 11.944C46.0565 12.032 45.8658 12.0613 45.6605 12.032C45.4698 12.0027 45.3085 11.8853 45.1765 11.68L43.3945 8.908L41.6125 11.68C41.4805 11.8853 41.3118 12.0027 41.1065 12.032C40.9158 12.0613 40.7325 12.032 40.5565 11.944C40.3805 11.8413 40.2558 11.6947 40.1825 11.504C40.1092 11.3133 40.1385 11.1007 40.2705 10.866L41.8545 7.962C42.0305 7.62467 42.2432 7.37533 42.4925 7.214C42.7565 7.05267 43.0572 6.972 43.3945 6.972C43.7318 6.972 44.0325 7.05267 44.2965 7.214C44.5605 7.37533 44.7805 7.62467 44.9565 7.962L46.5185 10.866ZM60.015 24.22C59.2376 24.22 58.541 24.0733 57.925 23.78C57.3236 23.472 56.847 23.0613 56.495 22.548C56.1576 22.0347 55.989 21.4553 55.989 20.81C55.989 20.018 56.1943 19.3947 56.605 18.94C57.0156 18.4707 57.683 18.1333 58.607 17.928C59.531 17.7227 60.7703 17.62 62.325 17.62H63.425V19.204H62.347C61.4376 19.204 60.7116 19.248 60.169 19.336C59.6263 19.424 59.2376 19.578 59.003 19.798C58.783 20.0033 58.673 20.2967 58.673 20.678C58.673 21.162 58.8416 21.558 59.179 21.866C59.5163 22.174 59.9856 22.328 60.587 22.328C61.071 22.328 61.4963 22.218 61.863 21.998C62.2443 21.7633 62.545 21.448 62.765 21.052C62.985 20.656 63.095 20.2013 63.095 19.688V17.158C63.095 16.4247 62.9336 15.8967 62.611 15.574C62.2883 15.2513 61.7456 15.09 60.983 15.09C60.5576 15.09 60.0956 15.1413 59.597 15.244C59.113 15.3467 58.5996 15.5227 58.057 15.772C57.7783 15.904 57.529 15.9407 57.309 15.882C57.1036 15.8233 56.9423 15.706 56.825 15.53C56.7076 15.3393 56.649 15.134 56.649 14.914C56.649 14.694 56.7076 14.4813 56.825 14.276C56.9423 14.056 57.1403 13.8947 57.419 13.792C58.0936 13.5133 58.739 13.3153 59.355 13.198C59.9856 13.0807 60.5576 13.022 61.071 13.022C62.127 13.022 62.9923 13.1833 63.667 13.506C64.3563 13.8287 64.8696 14.32 65.207 14.98C65.5443 15.6253 65.713 16.4613 65.713 17.488V22.768C65.713 23.2227 65.603 23.5747 65.383 23.824C65.163 24.0587 64.8476 24.176 64.437 24.176C64.0263 24.176 63.7036 24.0587 63.469 23.824C63.249 23.5747 63.139 23.2227 63.139 22.768V21.712H63.315C63.2123 22.2253 63.007 22.6727 62.699 23.054C62.4056 23.4207 62.0316 23.7067 61.577 23.912C61.1223 24.1173 60.6016 24.22 60.015 24.22ZM69.8682 24.154C69.4282 24.154 69.0909 24.022 68.8562 23.758C68.6216 23.494 68.5042 23.1273 68.5042 22.658V14.584C68.5042 14.1 68.6216 13.7333 68.8562 13.484C69.0909 13.22 69.4282 13.088 69.8682 13.088C70.3082 13.088 70.6456 13.22 70.8802 13.484C71.1296 13.7333 71.2542 14.1 71.2542 14.584V22.658C71.2542 23.1273 71.1369 23.494 70.9022 23.758C70.6676 24.022 70.3229 24.154 69.8682 24.154ZM69.8682 11.042C69.3549 11.042 68.9516 10.9173 68.6582 10.668C68.3796 10.404 68.2402 10.0447 68.2402 9.59C68.2402 9.12067 68.3796 8.76133 68.6582 8.512C68.9516 8.26267 69.3549 8.138 69.8682 8.138C70.3962 8.138 70.7996 8.26267 71.0782 8.512C71.3569 8.76133 71.4962 9.12067 71.4962 9.59C71.4962 10.0447 71.3569 10.404 71.0782 10.668C70.7996 10.9173 70.3962 11.042 69.8682 11.042ZM75.4756 24.176C75.0356 24.176 74.6983 24.0587 74.4636 23.824C74.229 23.5747 74.1116 23.2227 74.1116 22.768V14.452C74.1116 13.9973 74.229 13.6527 74.4636 13.418C74.6983 13.1833 75.0283 13.066 75.4536 13.066C75.879 13.066 76.209 13.1833 76.4436 13.418C76.6783 13.6527 76.7956 13.9973 76.7956 14.452V15.948L76.5536 15.398C76.8763 14.6207 77.375 14.034 78.0496 13.638C78.739 13.2273 79.5163 13.022 80.3816 13.022C81.247 13.022 81.9583 13.1833 82.5156 13.506C83.073 13.8287 83.491 14.32 83.7696 14.98C84.0483 15.6253 84.1876 16.4467 84.1876 17.444V22.768C84.1876 23.2227 84.0703 23.5747 83.8356 23.824C83.601 24.0587 83.2636 24.176 82.8236 24.176C82.3836 24.176 82.039 24.0587 81.7896 23.824C81.555 23.5747 81.4376 23.2227 81.4376 22.768V17.576C81.4376 16.74 81.2763 16.1313 80.9536 15.75C80.6456 15.3687 80.1616 15.178 79.5016 15.178C78.695 15.178 78.0496 15.4347 77.5656 15.948C77.0963 16.4467 76.8616 17.114 76.8616 17.95V22.768C76.8616 23.7067 76.3996 24.176 75.4756 24.176ZM91.1168 24.22C90.1781 24.22 89.3494 23.9927 88.6308 23.538C87.9268 23.0833 87.3768 22.438 86.9808 21.602C86.5848 20.7513 86.3868 19.754 86.3868 18.61C86.3868 17.4513 86.5848 16.4613 86.9808 15.64C87.3768 14.804 87.9268 14.1587 88.6308 13.704C89.3494 13.2493 90.1781 13.022 91.1168 13.022C92.0114 13.022 92.7888 13.242 93.4488 13.682C94.1234 14.122 94.5781 14.7013 94.8128 15.42H94.5708V9.7C94.5708 9.24533 94.6881 8.90067 94.9228 8.666C95.1574 8.43133 95.4948 8.314 95.9348 8.314C96.3748 8.314 96.7121 8.43133 96.9468 8.666C97.1961 8.90067 97.3208 9.24533 97.3208 9.7V22.768C97.3208 23.2227 97.2034 23.5747 96.9688 23.824C96.7341 24.0587 96.3968 24.176 95.9568 24.176C95.5168 24.176 95.1794 24.0587 94.9448 23.824C94.7101 23.5747 94.5928 23.2227 94.5928 22.768V21.052L94.8348 21.712C94.6148 22.4747 94.1674 23.0833 93.4928 23.538C92.8181 23.9927 92.0261 24.22 91.1168 24.22ZM91.8868 22.13C92.4294 22.13 92.9061 21.998 93.3168 21.734C93.7274 21.47 94.0428 21.0813 94.2628 20.568C94.4974 20.04 94.6148 19.3873 94.6148 18.61C94.6148 17.4367 94.3654 16.564 93.8668 15.992C93.3681 15.4053 92.7081 15.112 91.8868 15.112C91.3441 15.112 90.8674 15.244 90.4568 15.508C90.0461 15.7573 89.7234 16.146 89.4888 16.674C89.2688 17.1873 89.1588 17.8327 89.1588 18.61C89.1588 19.7687 89.4081 20.6487 89.9068 21.25C90.4054 21.8367 91.0654 22.13 91.8868 22.13ZM103.714 24.22C102.937 24.22 102.24 24.0733 101.624 23.78C101.023 23.472 100.546 23.0613 100.194 22.548C99.8569 22.0347 99.6882 21.4553 99.6882 20.81C99.6882 20.018 99.8935 19.3947 100.304 18.94C100.715 18.4707 101.382 18.1333 102.306 17.928C103.23 17.7227 104.47 17.62 106.024 17.62H107.124V19.204H106.046C105.137 19.204 104.411 19.248 103.868 19.336C103.326 19.424 102.937 19.578 102.702 19.798C102.482 20.0033 102.372 20.2967 102.372 20.678C102.372 21.162 102.541 21.558 102.878 21.866C103.216 22.174 103.685 22.328 104.286 22.328C104.77 22.328 105.196 22.218 105.562 21.998C105.944 21.7633 106.244 21.448 106.464 21.052C106.684 20.656 106.794 20.2013 106.794 19.688V17.158C106.794 16.4247 106.633 15.8967 106.31 15.574C105.988 15.2513 105.445 15.09 104.682 15.09C104.257 15.09 103.795 15.1413 103.296 15.244C102.812 15.3467 102.299 15.5227 101.756 15.772C101.478 15.904 101.228 15.9407 101.008 15.882C100.803 15.8233 100.642 15.706 100.524 15.53C100.407 15.3393 100.348 15.134 100.348 14.914C100.348 14.694 100.407 14.4813 100.524 14.276C100.642 14.056 100.84 13.8947 101.118 13.792C101.793 13.5133 102.438 13.3153 103.054 13.198C103.685 13.0807 104.257 13.022 104.77 13.022C105.826 13.022 106.692 13.1833 107.366 13.506C108.056 13.8287 108.569 14.32 108.906 14.98C109.244 15.6253 109.412 16.4613 109.412 17.488V22.768C109.412 23.2227 109.302 23.5747 109.082 23.824C108.862 24.0587 108.547 24.176 108.136 24.176C107.726 24.176 107.403 24.0587 107.168 23.824C106.948 23.5747 106.838 23.2227 106.838 22.768V21.712H107.014C106.912 22.2253 106.706 22.6727 106.398 23.054C106.105 23.4207 105.731 23.7067 105.276 23.912C104.822 24.1173 104.301 24.22 103.714 24.22ZM119.54 24.176C119.1 24.176 118.763 24.0587 118.528 23.824C118.293 23.5747 118.176 23.2227 118.176 22.768V14.452C118.176 13.9973 118.293 13.6527 118.528 13.418C118.763 13.1833 119.093 13.066 119.518 13.066C119.943 13.066 120.273 13.1833 120.508 13.418C120.743 13.6527 120.86 13.9973 120.86 14.452V15.948L120.618 15.398C120.941 14.6207 121.439 14.034 122.114 13.638C122.803 13.2273 123.581 13.022 124.446 13.022C125.311 13.022 126.023 13.1833 126.58 13.506C127.137 13.8287 127.555 14.32 127.834 14.98C128.113 15.6253 128.252 16.4467 128.252 17.444V22.768C128.252 23.2227 128.135 23.5747 127.9 23.824C127.665 24.0587 127.328 24.176 126.888 24.176C126.448 24.176 126.103 24.0587 125.854 23.824C125.619 23.5747 125.502 23.2227 125.502 22.768V17.576C125.502 16.74 125.341 16.1313 125.018 15.75C124.71 15.3687 124.226 15.178 123.566 15.178C122.759 15.178 122.114 15.4347 121.63 15.948C121.161 16.4467 120.926 17.114 120.926 17.95V22.768C120.926 23.7067 120.464 24.176 119.54 24.176ZM134.587 24.22C133.81 24.22 133.113 24.0733 132.497 23.78C131.896 23.472 131.419 23.0613 131.067 22.548C130.73 22.0347 130.561 21.4553 130.561 20.81C130.561 20.018 130.767 19.3947 131.177 18.94C131.588 18.4707 132.255 18.1333 133.179 17.928C134.103 17.7227 135.343 17.62 136.897 17.62H137.997V19.204H136.919C136.01 19.204 135.284 19.248 134.741 19.336C134.199 19.424 133.81 19.578 133.575 19.798C133.355 20.0033 133.245 20.2967 133.245 20.678C133.245 21.162 133.414 21.558 133.751 21.866C134.089 22.174 134.558 22.328 135.159 22.328C135.643 22.328 136.069 22.218 136.435 21.998C136.817 21.7633 137.117 21.448 137.337 21.052C137.557 20.656 137.667 20.2013 137.667 19.688V17.158C137.667 16.4247 137.506 15.8967 137.183 15.574C136.861 15.2513 136.318 15.09 135.555 15.09C135.13 15.09 134.668 15.1413 134.169 15.244C133.685 15.3467 133.172 15.5227 132.629 15.772C132.351 15.904 132.101 15.9407 131.881 15.882C131.676 15.8233 131.515 15.706 131.397 15.53C131.28 15.3393 131.221 15.134 131.221 14.914C131.221 14.694 131.28 14.4813 131.397 14.276C131.515 14.056 131.713 13.8947 131.991 13.792C132.666 13.5133 133.311 13.3153 133.927 13.198C134.558 13.0807 135.13 13.022 135.643 13.022C136.699 13.022 137.565 13.1833 138.239 13.506C138.929 13.8287 139.442 14.32 139.779 14.98C140.117 15.6253 140.285 16.4613 140.285 17.488V22.768C140.285 23.2227 140.175 23.5747 139.955 23.824C139.735 24.0587 139.42 24.176 139.009 24.176C138.599 24.176 138.276 24.0587 138.041 23.824C137.821 23.5747 137.711 23.2227 137.711 22.768V21.712H137.887C137.785 22.2253 137.579 22.6727 137.271 23.054C136.978 23.4207 136.604 23.7067 136.149 23.912C135.695 24.1173 135.174 24.22 134.587 24.22ZM132.167 11.218C131.947 11.2033 131.779 11.13 131.661 10.998C131.544 10.866 131.515 10.6607 131.573 10.382C131.632 10.074 131.72 9.77333 131.837 9.48C131.969 9.172 132.138 8.89333 132.343 8.644C132.549 8.39467 132.798 8.19667 133.091 8.05C133.385 7.88867 133.729 7.808 134.125 7.808C134.492 7.808 134.815 7.88133 135.093 8.028C135.372 8.17467 135.629 8.34333 135.863 8.534C136.098 8.72467 136.333 8.89333 136.567 9.04C136.802 9.18667 137.059 9.26 137.337 9.26C137.645 9.26 137.909 9.15733 138.129 8.952C138.364 8.732 138.511 8.46067 138.569 8.138C138.599 7.97667 138.672 7.852 138.789 7.764C138.921 7.676 139.105 7.63933 139.339 7.654C139.559 7.66867 139.728 7.742 139.845 7.874C139.963 8.006 139.992 8.21133 139.933 8.49C139.86 8.886 139.721 9.282 139.515 9.678C139.31 10.074 139.031 10.404 138.679 10.668C138.342 10.932 137.909 11.064 137.381 11.064C137.015 11.064 136.692 10.9907 136.413 10.844C136.135 10.6973 135.871 10.5287 135.621 10.338C135.387 10.1473 135.152 9.97867 134.917 9.832C134.683 9.68533 134.433 9.612 134.169 9.612C133.861 9.612 133.597 9.71467 133.377 9.92C133.157 10.1253 133.011 10.3967 132.937 10.734C132.908 10.8953 132.827 11.02 132.695 11.108C132.578 11.196 132.402 11.2327 132.167 11.218ZM147.982 24.22C146.868 24.22 145.9 23.9927 145.078 23.538C144.257 23.0833 143.619 22.438 143.164 21.602C142.71 20.7513 142.482 19.754 142.482 18.61C142.482 17.7447 142.607 16.9747 142.856 16.3C143.12 15.6107 143.494 15.024 143.978 14.54C144.462 14.0413 145.042 13.6673 145.716 13.418C146.391 13.154 147.146 13.022 147.982 13.022C149.097 13.022 150.065 13.2493 150.886 13.704C151.708 14.1587 152.346 14.804 152.8 15.64C153.255 16.476 153.482 17.466 153.482 18.61C153.482 19.4753 153.35 20.2527 153.086 20.942C152.837 21.6313 152.47 22.2253 151.986 22.724C151.502 23.208 150.923 23.582 150.248 23.846C149.574 24.0953 148.818 24.22 147.982 24.22ZM147.982 22.13C148.525 22.13 149.002 21.998 149.412 21.734C149.823 21.47 150.138 21.0813 150.358 20.568C150.593 20.04 150.71 19.3873 150.71 18.61C150.71 17.4367 150.461 16.564 149.962 15.992C149.464 15.4053 148.804 15.112 147.982 15.112C147.44 15.112 146.963 15.244 146.552 15.508C146.142 15.7573 145.819 16.146 145.584 16.674C145.364 17.1873 145.254 17.8327 145.254 18.61C145.254 19.7687 145.504 20.6487 146.002 21.25C146.501 21.8367 147.161 22.13 147.982 22.13ZM163.089 28.136C162.649 28.136 162.312 28.0187 162.077 27.784C161.842 27.5493 161.725 27.2047 161.725 26.75V14.452C161.725 13.9973 161.842 13.6527 162.077 13.418C162.312 13.1833 162.642 13.066 163.067 13.066C163.507 13.066 163.844 13.1833 164.079 13.418C164.314 13.6527 164.431 13.9973 164.431 14.452V16.168L164.189 15.508C164.409 14.76 164.856 14.1587 165.531 13.704C166.22 13.2493 167.02 13.022 167.929 13.022C168.868 13.022 169.689 13.2493 170.393 13.704C171.112 14.1587 171.669 14.804 172.065 15.64C172.461 16.4613 172.659 17.4513 172.659 18.61C172.659 19.754 172.461 20.7513 172.065 21.602C171.669 22.438 171.119 23.0833 170.415 23.538C169.711 23.9927 168.882 24.22 167.929 24.22C167.034 24.22 166.25 24 165.575 23.56C164.9 23.1053 164.446 22.5187 164.211 21.8H164.475V26.75C164.475 27.2047 164.35 27.5493 164.101 27.784C163.866 28.0187 163.529 28.136 163.089 28.136ZM167.159 22.13C167.702 22.13 168.178 21.998 168.589 21.734C169 21.47 169.315 21.0813 169.535 20.568C169.77 20.04 169.887 19.3873 169.887 18.61C169.887 17.4367 169.638 16.564 169.139 15.992C168.64 15.4053 167.98 15.112 167.159 15.112C166.616 15.112 166.14 15.244 165.729 15.508C165.318 15.7573 164.996 16.146 164.761 16.674C164.541 17.1873 164.431 17.8327 164.431 18.61C164.431 19.7687 164.68 20.6487 165.179 21.25C165.678 21.8367 166.338 22.13 167.159 22.13ZM179.822 24.22C178.708 24.22 177.74 23.9927 176.918 23.538C176.097 23.0833 175.459 22.438 175.004 21.602C174.55 20.7513 174.322 19.754 174.322 18.61C174.322 17.7447 174.447 16.9747 174.696 16.3C174.96 15.6107 175.334 15.024 175.818 14.54C176.302 14.0413 176.882 13.6673 177.556 13.418C178.231 13.154 178.986 13.022 179.822 13.022C180.937 13.022 181.905 13.2493 182.726 13.704C183.548 14.1587 184.186 14.804 184.64 15.64C185.095 16.476 185.322 17.466 185.322 18.61C185.322 19.4753 185.19 20.2527 184.926 20.942C184.677 21.6313 184.31 22.2253 183.826 22.724C183.342 23.208 182.763 23.582 182.088 23.846C181.414 24.0953 180.658 24.22 179.822 24.22ZM179.822 22.13C180.365 22.13 180.842 21.998 181.252 21.734C181.663 21.47 181.978 21.0813 182.198 20.568C182.433 20.04 182.55 19.3873 182.55 18.61C182.55 17.4367 182.301 16.564 181.802 15.992C181.304 15.4053 180.644 15.112 179.822 15.112C179.28 15.112 178.803 15.244 178.392 15.508C177.982 15.7573 177.659 16.146 177.424 16.674C177.204 17.1873 177.094 17.8327 177.094 18.61C177.094 19.7687 177.344 20.6487 177.842 21.25C178.341 21.8367 179.001 22.13 179.822 22.13ZM191.53 24.22C190.899 24.22 190.232 24.154 189.528 24.022C188.824 23.89 188.193 23.6627 187.636 23.34C187.401 23.1933 187.233 23.0247 187.13 22.834C187.042 22.6287 187.005 22.4307 187.02 22.24C187.049 22.0347 187.123 21.8587 187.24 21.712C187.372 21.5653 187.533 21.47 187.724 21.426C187.929 21.382 188.149 21.4187 188.384 21.536C188.971 21.8147 189.521 22.0127 190.034 22.13C190.547 22.2327 191.053 22.284 191.552 22.284C192.256 22.284 192.777 22.1667 193.114 21.932C193.466 21.6827 193.642 21.36 193.642 20.964C193.642 20.6267 193.525 20.37 193.29 20.194C193.07 20.0033 192.733 19.864 192.278 19.776L190.078 19.358C189.169 19.182 188.472 18.852 187.988 18.368C187.519 17.8693 187.284 17.2313 187.284 16.454C187.284 15.75 187.475 15.1413 187.856 14.628C188.252 14.1147 188.795 13.7187 189.484 13.44C190.173 13.1613 190.965 13.022 191.86 13.022C192.505 13.022 193.107 13.0953 193.664 13.242C194.236 13.374 194.786 13.5867 195.314 13.88C195.534 13.9973 195.681 14.1513 195.754 14.342C195.842 14.5327 195.864 14.7307 195.82 14.936C195.776 15.1267 195.688 15.3027 195.556 15.464C195.424 15.6107 195.255 15.706 195.05 15.75C194.859 15.7793 194.639 15.7353 194.39 15.618C193.935 15.3833 193.495 15.2147 193.07 15.112C192.659 15.0093 192.263 14.958 191.882 14.958C191.163 14.958 190.628 15.0827 190.276 15.332C189.939 15.5813 189.77 15.9113 189.77 16.322C189.77 16.63 189.873 16.8867 190.078 17.092C190.283 17.2973 190.599 17.4367 191.024 17.51L193.224 17.928C194.177 18.104 194.896 18.4267 195.38 18.896C195.879 19.3653 196.128 19.996 196.128 20.788C196.128 21.8587 195.71 22.702 194.874 23.318C194.038 23.9193 192.923 24.22 191.53 24.22ZM202.272 24.22C201.642 24.22 200.974 24.154 200.27 24.022C199.566 23.89 198.936 23.6627 198.378 23.34C198.144 23.1933 197.975 23.0247 197.872 22.834C197.784 22.6287 197.748 22.4307 197.762 22.24C197.792 22.0347 197.865 21.8587 197.982 21.712C198.114 21.5653 198.276 21.47 198.466 21.426C198.672 21.382 198.892 21.4187 199.126 21.536C199.713 21.8147 200.263 22.0127 200.776 22.13C201.29 22.2327 201.796 22.284 202.294 22.284C202.998 22.284 203.519 22.1667 203.856 21.932C204.208 21.6827 204.384 21.36 204.384 20.964C204.384 20.6267 204.267 20.37 204.032 20.194C203.812 20.0033 203.475 19.864 203.02 19.776L200.82 19.358C199.911 19.182 199.214 18.852 198.73 18.368C198.261 17.8693 198.026 17.2313 198.026 16.454C198.026 15.75 198.217 15.1413 198.598 14.628C198.994 14.1147 199.537 13.7187 200.226 13.44C200.916 13.1613 201.708 13.022 202.602 13.022C203.248 13.022 203.849 13.0953 204.406 13.242C204.978 13.374 205.528 13.5867 206.056 13.88C206.276 13.9973 206.423 14.1513 206.496 14.342C206.584 14.5327 206.606 14.7307 206.562 14.936C206.518 15.1267 206.43 15.3027 206.298 15.464C206.166 15.6107 205.998 15.706 205.792 15.75C205.602 15.7793 205.382 15.7353 205.132 15.618C204.678 15.3833 204.238 15.2147 203.812 15.112C203.402 15.0093 203.006 14.958 202.624 14.958C201.906 14.958 201.37 15.0827 201.018 15.332C200.681 15.5813 200.512 15.9113 200.512 16.322C200.512 16.63 200.615 16.8867 200.82 17.092C201.026 17.2973 201.341 17.4367 201.766 17.51L203.966 17.928C204.92 18.104 205.638 18.4267 206.122 18.896C206.621 19.3653 206.87 19.996 206.87 20.788C206.87 21.8587 206.452 22.702 205.616 23.318C204.78 23.9193 203.666 24.22 202.272 24.22ZM212.97 24.22C212.076 24.22 211.335 24.0587 210.748 23.736C210.162 23.3987 209.722 22.9 209.428 22.24C209.15 21.58 209.01 20.7587 209.01 19.776V14.452C209.01 13.9827 209.128 13.638 209.362 13.418C209.597 13.1833 209.934 13.066 210.374 13.066C210.814 13.066 211.152 13.1833 211.386 13.418C211.636 13.638 211.76 13.9827 211.76 14.452V19.82C211.76 20.5827 211.914 21.1473 212.222 21.514C212.53 21.8807 213.022 22.064 213.696 22.064C214.43 22.064 215.031 21.8147 215.5 21.316C215.97 20.8027 216.204 20.128 216.204 19.292V14.452C216.204 13.9827 216.322 13.638 216.556 13.418C216.791 13.1833 217.128 13.066 217.568 13.066C218.008 13.066 218.346 13.1833 218.58 13.418C218.83 13.638 218.954 13.9827 218.954 14.452V22.768C218.954 23.7067 218.507 24.176 217.612 24.176C217.187 24.176 216.857 24.0587 216.622 23.824C216.388 23.5747 216.27 23.2227 216.27 22.768V21.096L216.578 21.756C216.27 22.548 215.801 23.1567 215.17 23.582C214.554 24.0073 213.821 24.22 212.97 24.22ZM223.181 24.154C222.741 24.154 222.403 24.022 222.169 23.758C221.934 23.494 221.817 23.1273 221.817 22.658V14.584C221.817 14.1 221.934 13.7333 222.169 13.484C222.403 13.22 222.741 13.088 223.181 13.088C223.621 13.088 223.958 13.22 224.193 13.484C224.442 13.7333 224.567 14.1 224.567 14.584V22.658C224.567 23.1273 224.449 23.494 224.215 23.758C223.98 24.022 223.635 24.154 223.181 24.154ZM223.181 11.042C222.667 11.042 222.264 10.9173 221.971 10.668C221.692 10.404 221.553 10.0447 221.553 9.59C221.553 9.12067 221.692 8.76133 221.971 8.512C222.264 8.26267 222.667 8.138 223.181 8.138C223.709 8.138 224.112 8.26267 224.391 8.512C224.669 8.76133 224.809 9.12067 224.809 9.59C224.809 10.0447 224.669 10.404 224.391 10.668C224.112 10.9173 223.709 11.042 223.181 11.042ZM234.761 24.176C234.321 24.176 233.983 24.0587 233.749 23.824C233.514 23.5747 233.397 23.2227 233.397 22.768V14.452C233.397 13.9973 233.514 13.6527 233.749 13.418C233.983 13.1833 234.313 13.066 234.739 13.066C235.164 13.066 235.494 13.1833 235.729 13.418C235.963 13.6527 236.081 13.9973 236.081 14.452V15.948L235.839 15.398C236.161 14.6207 236.66 14.034 237.335 13.638C238.024 13.2273 238.801 13.022 239.667 13.022C240.532 13.022 241.243 13.1833 241.801 13.506C242.358 13.8287 242.776 14.32 243.055 14.98C243.333 15.6253 243.473 16.4467 243.473 17.444V22.768C243.473 23.2227 243.355 23.5747 243.121 23.824C242.886 24.0587 242.549 24.176 242.109 24.176C241.669 24.176 241.324 24.0587 241.075 23.824C240.84 23.5747 240.723 23.2227 240.723 22.768V17.576C240.723 16.74 240.561 16.1313 240.239 15.75C239.931 15.3687 239.447 15.178 238.787 15.178C237.98 15.178 237.335 15.4347 236.851 15.948C236.381 16.4467 236.147 17.114 236.147 17.95V22.768C236.147 23.7067 235.685 24.176 234.761 24.176ZM251.568 24.22C250.351 24.22 249.302 23.9927 248.422 23.538C247.542 23.0833 246.86 22.438 246.376 21.602C245.907 20.766 245.672 19.776 245.672 18.632C245.672 17.5173 245.899 16.542 246.354 15.706C246.823 14.87 247.461 14.2173 248.268 13.748C249.089 13.264 250.021 13.022 251.062 13.022C251.825 13.022 252.507 13.1467 253.108 13.396C253.724 13.6453 254.245 14.0047 254.67 14.474C255.11 14.9433 255.44 15.5153 255.66 16.19C255.895 16.85 256.012 17.598 256.012 18.434C256.012 18.698 255.917 18.9033 255.726 19.05C255.55 19.182 255.293 19.248 254.956 19.248H247.894V17.664H254.076L253.724 17.994C253.724 17.3193 253.621 16.7547 253.416 16.3C253.225 15.8453 252.939 15.5007 252.558 15.266C252.191 15.0167 251.729 14.892 251.172 14.892C250.556 14.892 250.028 15.0387 249.588 15.332C249.163 15.6107 248.833 16.014 248.598 16.542C248.378 17.0553 248.268 17.6713 248.268 18.39V18.544C248.268 19.7467 248.547 20.6487 249.104 21.25C249.676 21.8367 250.512 22.13 251.612 22.13C251.993 22.13 252.419 22.086 252.888 21.998C253.372 21.8953 253.827 21.7267 254.252 21.492C254.56 21.316 254.831 21.2427 255.066 21.272C255.301 21.2867 255.484 21.3673 255.616 21.514C255.763 21.6607 255.851 21.844 255.88 22.064C255.909 22.2693 255.865 22.482 255.748 22.702C255.645 22.922 255.462 23.1127 255.198 23.274C254.685 23.5967 254.091 23.8387 253.416 24C252.756 24.1467 252.14 24.22 251.568 24.22ZM259.554 24.176C259.114 24.176 258.776 24.0587 258.542 23.824C258.307 23.5747 258.19 23.2227 258.19 22.768V14.452C258.19 13.9973 258.307 13.6527 258.542 13.418C258.776 13.1833 259.106 13.066 259.532 13.066C259.957 13.066 260.287 13.1833 260.522 13.418C260.756 13.6527 260.874 13.9973 260.874 14.452V15.948L260.632 15.398C260.954 14.6207 261.453 14.034 262.128 13.638C262.817 13.2273 263.594 13.022 264.46 13.022C265.325 13.022 266.036 13.1833 266.594 13.506C267.151 13.8287 267.569 14.32 267.848 14.98C268.126 15.6253 268.266 16.4467 268.266 17.444V22.768C268.266 23.2227 268.148 23.5747 267.914 23.824C267.679 24.0587 267.342 24.176 266.902 24.176C266.462 24.176 266.117 24.0587 265.868 23.824C265.633 23.5747 265.516 23.2227 265.516 22.768V17.576C265.516 16.74 265.354 16.1313 265.032 15.75C264.724 15.3687 264.24 15.178 263.58 15.178C262.773 15.178 262.128 15.4347 261.644 15.948C261.174 16.4467 260.94 17.114 260.94 17.95V22.768C260.94 23.7067 260.478 24.176 259.554 24.176ZM272.423 24.176C271.983 24.176 271.646 24.0587 271.411 23.824C271.176 23.5747 271.059 23.2227 271.059 22.768V9.7C271.059 9.24533 271.176 8.90067 271.411 8.666C271.646 8.43133 271.983 8.314 272.423 8.314C272.863 8.314 273.2 8.43133 273.435 8.666C273.684 8.90067 273.809 9.24533 273.809 9.7V15.398H273.501C273.824 14.6207 274.322 14.034 274.997 13.638C275.686 13.2273 276.464 13.022 277.329 13.022C278.194 13.022 278.906 13.1833 279.463 13.506C280.02 13.8287 280.438 14.32 280.717 14.98C280.996 15.6253 281.135 16.4467 281.135 17.444V22.768C281.135 23.2227 281.018 23.5747 280.783 23.824C280.548 24.0587 280.211 24.176 279.771 24.176C279.331 24.176 278.986 24.0587 278.737 23.824C278.502 23.5747 278.385 23.2227 278.385 22.768V17.576C278.385 16.74 278.224 16.1313 277.901 15.75C277.593 15.3687 277.109 15.178 276.449 15.178C275.642 15.178 274.997 15.4347 274.513 15.948C274.044 16.4467 273.809 17.114 273.809 17.95V22.768C273.809 23.7067 273.347 24.176 272.423 24.176ZM287.822 24.22C286.927 24.22 286.187 24.0587 285.6 23.736C285.013 23.3987 284.573 22.9 284.28 22.24C284.001 21.58 283.862 20.7587 283.862 19.776V14.452C283.862 13.9827 283.979 13.638 284.214 13.418C284.449 13.1833 284.786 13.066 285.226 13.066C285.666 13.066 286.003 13.1833 286.238 13.418C286.487 13.638 286.612 13.9827 286.612 14.452V19.82C286.612 20.5827 286.766 21.1473 287.074 21.514C287.382 21.8807 287.873 22.064 288.548 22.064C289.281 22.064 289.883 21.8147 290.352 21.316C290.821 20.8027 291.056 20.128 291.056 19.292V14.452C291.056 13.9827 291.173 13.638 291.408 13.418C291.643 13.1833 291.98 13.066 292.42 13.066C292.86 13.066 293.197 13.1833 293.432 13.418C293.681 13.638 293.806 13.9827 293.806 14.452V22.768C293.806 23.7067 293.359 24.176 292.464 24.176C292.039 24.176 291.709 24.0587 291.474 23.824C291.239 23.5747 291.122 23.2227 291.122 22.768V21.096L291.43 21.756C291.122 22.548 290.653 23.1567 290.022 23.582C289.406 24.0073 288.673 24.22 287.822 24.22ZM298.076 24.176C297.636 24.176 297.299 24.0587 297.064 23.824C296.83 23.5747 296.712 23.2227 296.712 22.768V14.452C296.712 13.9973 296.83 13.6527 297.064 13.418C297.299 13.1833 297.629 13.066 298.054 13.066C298.48 13.066 298.81 13.1833 299.044 13.418C299.279 13.6527 299.396 13.9973 299.396 14.452V16.058L299.154 15.398C299.448 14.6647 299.902 14.0853 300.518 13.66C301.134 13.2347 301.868 13.022 302.718 13.022C303.584 13.022 304.295 13.2273 304.852 13.638C305.41 14.0487 305.798 14.6793 306.018 15.53H305.71C306.004 14.7527 306.488 14.144 307.162 13.704C307.837 13.2493 308.614 13.022 309.494 13.022C310.316 13.022 310.99 13.1833 311.518 13.506C312.061 13.8287 312.464 14.32 312.728 14.98C312.992 15.6253 313.124 16.4467 313.124 17.444V22.768C313.124 23.2227 313 23.5747 312.75 23.824C312.516 24.0587 312.178 24.176 311.738 24.176C311.298 24.176 310.961 24.0587 310.726 23.824C310.492 23.5747 310.374 23.2227 310.374 22.768V17.554C310.374 16.7327 310.235 16.1313 309.956 15.75C309.692 15.3687 309.238 15.178 308.592 15.178C307.874 15.178 307.309 15.4347 306.898 15.948C306.488 16.4467 306.282 17.1433 306.282 18.038V22.768C306.282 23.2227 306.165 23.5747 305.93 23.824C305.696 24.0587 305.358 24.176 304.918 24.176C304.478 24.176 304.134 24.0587 303.884 23.824C303.65 23.5747 303.532 23.2227 303.532 22.768V17.554C303.532 16.7327 303.393 16.1313 303.114 15.75C302.85 15.3687 302.403 15.178 301.772 15.178C301.054 15.178 300.489 15.4347 300.078 15.948C299.668 16.4467 299.462 17.1433 299.462 18.038V22.768C299.462 23.7067 299 24.176 298.076 24.176ZM325.608 24.22C324.391 24.22 323.474 23.8753 322.858 23.186C322.242 22.482 321.934 21.4553 321.934 20.106V9.7C321.934 9.24533 322.051 8.90067 322.286 8.666C322.521 8.43133 322.858 8.314 323.298 8.314C323.738 8.314 324.075 8.43133 324.31 8.666C324.559 8.90067 324.684 9.24533 324.684 9.7V19.974C324.684 20.6487 324.823 21.1473 325.102 21.47C325.395 21.7927 325.806 21.954 326.334 21.954C326.451 21.954 326.561 21.954 326.664 21.954C326.767 21.9393 326.869 21.9247 326.972 21.91C327.177 21.8807 327.317 21.9393 327.39 22.086C327.463 22.218 327.5 22.4967 327.5 22.922C327.5 23.2887 327.427 23.5747 327.28 23.78C327.133 23.9853 326.891 24.11 326.554 24.154C326.407 24.1687 326.253 24.1833 326.092 24.198C325.931 24.2127 325.769 24.22 325.608 24.22ZM332.501 24.22C331.724 24.22 331.027 24.0733 330.411 23.78C329.81 23.472 329.333 23.0613 328.981 22.548C328.644 22.0347 328.475 21.4553 328.475 20.81C328.475 20.018 328.681 19.3947 329.091 18.94C329.502 18.4707 330.169 18.1333 331.093 17.928C332.017 17.7227 333.257 17.62 334.811 17.62H335.911V19.204H334.833C333.924 19.204 333.198 19.248 332.655 19.336C332.113 19.424 331.724 19.578 331.489 19.798C331.269 20.0033 331.159 20.2967 331.159 20.678C331.159 21.162 331.328 21.558 331.665 21.866C332.003 22.174 332.472 22.328 333.073 22.328C333.557 22.328 333.983 22.218 334.349 21.998C334.731 21.7633 335.031 21.448 335.251 21.052C335.471 20.656 335.581 20.2013 335.581 19.688V17.158C335.581 16.4247 335.42 15.8967 335.097 15.574C334.775 15.2513 334.232 15.09 333.469 15.09C333.044 15.09 332.582 15.1413 332.083 15.244C331.599 15.3467 331.086 15.5227 330.543 15.772C330.265 15.904 330.015 15.9407 329.795 15.882C329.59 15.8233 329.429 15.706 329.311 15.53C329.194 15.3393 329.135 15.134 329.135 14.914C329.135 14.694 329.194 14.4813 329.311 14.276C329.429 14.056 329.627 13.8947 329.905 13.792C330.58 13.5133 331.225 13.3153 331.841 13.198C332.472 13.0807 333.044 13.022 333.557 13.022C334.613 13.022 335.479 13.1833 336.153 13.506C336.843 13.8287 337.356 14.32 337.693 14.98C338.031 15.6253 338.199 16.4613 338.199 17.488V22.768C338.199 23.2227 338.089 23.5747 337.869 23.824C337.649 24.0587 337.334 24.176 336.923 24.176C336.513 24.176 336.19 24.0587 335.955 23.824C335.735 23.5747 335.625 23.2227 335.625 22.768V21.712H335.801C335.699 22.2253 335.493 22.6727 335.185 23.054C334.892 23.4207 334.518 23.7067 334.063 23.912C333.609 24.1173 333.088 24.22 332.501 24.22ZM342.355 24.176C341.915 24.176 341.577 24.0587 341.343 23.824C341.108 23.5747 340.991 23.2227 340.991 22.768V14.452C340.991 13.9973 341.108 13.6527 341.343 13.418C341.577 13.1833 341.907 13.066 342.333 13.066C342.758 13.066 343.088 13.1833 343.323 13.418C343.557 13.6527 343.675 13.9973 343.675 14.452V15.948L343.433 15.398C343.755 14.6207 344.254 14.034 344.929 13.638C345.618 13.2273 346.395 13.022 347.261 13.022C348.126 13.022 348.837 13.1833 349.395 13.506C349.952 13.8287 350.37 14.32 350.649 14.98C350.927 15.6253 351.067 16.4467 351.067 17.444V22.768C351.067 23.2227 350.949 23.5747 350.715 23.824C350.48 24.0587 350.143 24.176 349.703 24.176C349.263 24.176 348.918 24.0587 348.669 23.824C348.434 23.5747 348.317 23.2227 348.317 22.768V17.576C348.317 16.74 348.155 16.1313 347.833 15.75C347.525 15.3687 347.041 15.178 346.381 15.178C345.574 15.178 344.929 15.4347 344.445 15.948C343.975 16.4467 343.741 17.114 343.741 17.95V22.768C343.741 23.7067 343.279 24.176 342.355 24.176ZM358.832 24.22C357.702 24.22 356.72 23.9927 355.884 23.538C355.048 23.0687 354.402 22.4087 353.948 21.558C353.493 20.7073 353.266 19.71 353.266 18.566C353.266 17.7007 353.39 16.9307 353.64 16.256C353.904 15.5667 354.278 14.9873 354.762 14.518C355.246 14.034 355.832 13.6673 356.522 13.418C357.211 13.154 357.981 13.022 358.832 13.022C359.316 13.022 359.836 13.088 360.394 13.22C360.966 13.352 361.501 13.572 362 13.88C362.234 14.0267 362.388 14.2027 362.462 14.408C362.535 14.6133 362.55 14.826 362.506 15.046C362.462 15.2513 362.366 15.4347 362.22 15.596C362.088 15.7427 361.919 15.838 361.714 15.882C361.508 15.9113 361.281 15.86 361.032 15.728C360.709 15.5373 360.379 15.398 360.042 15.31C359.704 15.2073 359.382 15.156 359.074 15.156C358.59 15.156 358.164 15.2367 357.798 15.398C357.431 15.5447 357.116 15.7647 356.852 16.058C356.602 16.3367 356.412 16.6887 356.28 17.114C356.148 17.5393 356.082 18.0307 356.082 18.588C356.082 19.6733 356.338 20.5313 356.852 21.162C357.38 21.778 358.12 22.086 359.074 22.086C359.382 22.086 359.697 22.042 360.02 21.954C360.357 21.866 360.694 21.7267 361.032 21.536C361.281 21.404 361.501 21.36 361.692 21.404C361.897 21.448 362.066 21.5507 362.198 21.712C362.33 21.8587 362.41 22.042 362.44 22.262C362.469 22.4673 362.44 22.6727 362.352 22.878C362.278 23.0833 362.132 23.252 361.912 23.384C361.428 23.6773 360.914 23.89 360.372 24.022C359.829 24.154 359.316 24.22 358.832 24.22ZM358.7 28.29C358.421 28.29 358.128 28.268 357.82 28.224C357.512 28.1947 357.233 28.136 356.984 28.048C356.764 27.9747 356.61 27.85 356.522 27.674C356.448 27.5127 356.434 27.344 356.478 27.168C356.536 27.0067 356.639 26.882 356.786 26.794C356.947 26.706 357.138 26.706 357.358 26.794C357.548 26.8527 357.732 26.8967 357.908 26.926C358.084 26.9553 358.274 26.97 358.48 26.97C358.861 26.97 359.154 26.9113 359.36 26.794C359.565 26.6913 359.668 26.53 359.668 26.31C359.668 26.1487 359.602 26.024 359.47 25.936C359.352 25.848 359.147 25.804 358.854 25.804C358.751 25.804 358.641 25.804 358.524 25.804C358.421 25.8187 358.311 25.8407 358.194 25.87C358.091 25.8993 357.996 25.9067 357.908 25.892C357.834 25.892 357.761 25.8627 357.688 25.804C357.629 25.7453 357.592 25.672 357.578 25.584C357.563 25.496 357.563 25.3787 357.578 25.232L357.82 23.56H359.294L359.008 25.232L358.304 24.99C358.48 24.9313 358.656 24.8873 358.832 24.858C359.008 24.8287 359.169 24.814 359.316 24.814C359.917 24.814 360.401 24.9533 360.768 25.232C361.134 25.5107 361.318 25.8993 361.318 26.398C361.318 26.97 361.076 27.4247 360.592 27.762C360.108 28.114 359.477 28.29 358.7 28.29ZM367.714 24.22C366.937 24.22 366.24 24.0733 365.624 23.78C365.023 23.472 364.546 23.0613 364.194 22.548C363.857 22.0347 363.688 21.4553 363.688 20.81C363.688 20.018 363.894 19.3947 364.304 18.94C364.715 18.4707 365.382 18.1333 366.306 17.928C367.23 17.7227 368.47 17.62 370.024 17.62H371.124V19.204H370.046C369.137 19.204 368.411 19.248 367.868 19.336C367.326 19.424 366.937 19.578 366.702 19.798C366.482 20.0033 366.372 20.2967 366.372 20.678C366.372 21.162 366.541 21.558 366.878 21.866C367.216 22.174 367.685 22.328 368.286 22.328C368.77 22.328 369.196 22.218 369.562 21.998C369.944 21.7633 370.244 21.448 370.464 21.052C370.684 20.656 370.794 20.2013 370.794 19.688V17.158C370.794 16.4247 370.633 15.8967 370.31 15.574C369.988 15.2513 369.445 15.09 368.682 15.09C368.257 15.09 367.795 15.1413 367.296 15.244C366.812 15.3467 366.299 15.5227 365.756 15.772C365.478 15.904 365.228 15.9407 365.008 15.882C364.803 15.8233 364.642 15.706 364.524 15.53C364.407 15.3393 364.348 15.134 364.348 14.914C364.348 14.694 364.407 14.4813 364.524 14.276C364.642 14.056 364.84 13.8947 365.118 13.792C365.793 13.5133 366.438 13.3153 367.054 13.198C367.685 13.0807 368.257 13.022 368.77 13.022C369.826 13.022 370.692 13.1833 371.366 13.506C372.056 13.8287 372.569 14.32 372.906 14.98C373.244 15.6253 373.412 16.4613 373.412 17.488V22.768C373.412 23.2227 373.302 23.5747 373.082 23.824C372.862 24.0587 372.547 24.176 372.136 24.176C371.726 24.176 371.403 24.0587 371.168 23.824C370.948 23.5747 370.838 23.2227 370.838 22.768V21.712H371.014C370.912 22.2253 370.706 22.6727 370.398 23.054C370.105 23.4207 369.731 23.7067 369.276 23.912C368.822 24.1173 368.301 24.22 367.714 24.22ZM377.611 24.176C377.171 24.176 376.834 24.0587 376.599 23.824C376.365 23.5747 376.247 23.2227 376.247 22.768V14.452C376.247 13.9973 376.365 13.6527 376.599 13.418C376.834 13.1833 377.164 13.066 377.589 13.066C378.015 13.066 378.345 13.1833 378.579 13.418C378.814 13.6527 378.931 13.9973 378.931 14.452V16.058L378.689 15.398C378.983 14.6647 379.437 14.0853 380.053 13.66C380.669 13.2347 381.403 13.022 382.253 13.022C383.119 13.022 383.83 13.2273 384.387 13.638C384.945 14.0487 385.333 14.6793 385.553 15.53H385.245C385.539 14.7527 386.023 14.144 386.697 13.704C387.372 13.2493 388.149 13.022 389.029 13.022C389.851 13.022 390.525 13.1833 391.053 13.506C391.596 13.8287 391.999 14.32 392.263 14.98C392.527 15.6253 392.659 16.4467 392.659 17.444V22.768C392.659 23.2227 392.535 23.5747 392.285 23.824C392.051 24.0587 391.713 24.176 391.273 24.176C390.833 24.176 390.496 24.0587 390.261 23.824C390.027 23.5747 389.909 23.2227 389.909 22.768V17.554C389.909 16.7327 389.77 16.1313 389.491 15.75C389.227 15.3687 388.773 15.178 388.127 15.178C387.409 15.178 386.844 15.4347 386.433 15.948C386.023 16.4467 385.817 17.1433 385.817 18.038V22.768C385.817 23.2227 385.7 23.5747 385.465 23.824C385.231 24.0587 384.893 24.176 384.453 24.176C384.013 24.176 383.669 24.0587 383.419 23.824C383.185 23.5747 383.067 23.2227 383.067 22.768V17.554C383.067 16.7327 382.928 16.1313 382.649 15.75C382.385 15.3687 381.938 15.178 381.307 15.178C380.589 15.178 380.024 15.4347 379.613 15.948C379.203 16.4467 378.997 17.1433 378.997 18.038V22.768C378.997 23.7067 378.535 24.176 377.611 24.176ZM400.798 24.22C399.581 24.22 398.532 23.9927 397.652 23.538C396.772 23.0833 396.09 22.438 395.606 21.602C395.137 20.766 394.902 19.776 394.902 18.632C394.902 17.5173 395.13 16.542 395.584 15.706C396.054 14.87 396.692 14.2173 397.498 13.748C398.32 13.264 399.251 13.022 400.292 13.022C401.055 13.022 401.737 13.1467 402.338 13.396C402.954 13.6453 403.475 14.0047 403.9 14.474C404.34 14.9433 404.67 15.5153 404.89 16.19C405.125 16.85 405.242 17.598 405.242 18.434C405.242 18.698 405.147 18.9033 404.956 19.05C404.78 19.182 404.524 19.248 404.186 19.248H397.124V17.664H403.306L402.954 17.994C402.954 17.3193 402.852 16.7547 402.646 16.3C402.456 15.8453 402.17 15.5007 401.788 15.266C401.422 15.0167 400.96 14.892 400.402 14.892C399.786 14.892 399.258 15.0387 398.818 15.332C398.393 15.6107 398.063 16.014 397.828 16.542C397.608 17.0553 397.498 17.6713 397.498 18.39V18.544C397.498 19.7467 397.777 20.6487 398.334 21.25C398.906 21.8367 399.742 22.13 400.842 22.13C401.224 22.13 401.649 22.086 402.118 21.998C402.602 21.8953 403.057 21.7267 403.482 21.492C403.79 21.316 404.062 21.2427 404.296 21.272C404.531 21.2867 404.714 21.3673 404.846 21.514C404.993 21.6607 405.081 21.844 405.11 22.064C405.14 22.2693 405.096 22.482 404.978 22.702C404.876 22.922 404.692 23.1127 404.428 23.274C403.915 23.5967 403.321 23.8387 402.646 24C401.986 24.1467 401.37 24.22 400.798 24.22ZM408.784 24.176C408.344 24.176 408.007 24.0587 407.772 23.824C407.538 23.5747 407.42 23.2227 407.42 22.768V14.452C407.42 13.9973 407.538 13.6527 407.772 13.418C408.007 13.1833 408.337 13.066 408.762 13.066C409.188 13.066 409.518 13.1833 409.752 13.418C409.987 13.6527 410.104 13.9973 410.104 14.452V15.948L409.862 15.398C410.185 14.6207 410.684 14.034 411.358 13.638C412.048 13.2273 412.825 13.022 413.69 13.022C414.556 13.022 415.267 13.1833 415.824 13.506C416.382 13.8287 416.8 14.32 417.078 14.98C417.357 15.6253 417.496 16.4467 417.496 17.444V22.768C417.496 23.2227 417.379 23.5747 417.144 23.824C416.91 24.0587 416.572 24.176 416.132 24.176C415.692 24.176 415.348 24.0587 415.098 23.824C414.864 23.5747 414.746 23.2227 414.746 22.768V17.576C414.746 16.74 414.585 16.1313 414.262 15.75C413.954 15.3687 413.47 15.178 412.81 15.178C412.004 15.178 411.358 15.4347 410.874 15.948C410.405 16.4467 410.17 17.114 410.17 17.95V22.768C410.17 23.7067 409.708 24.176 408.784 24.176ZM425.217 24.22C424.264 24.22 423.465 24.0587 422.819 23.736C422.189 23.4133 421.719 22.944 421.411 22.328C421.103 21.6973 420.949 20.92 420.949 19.996V15.31H419.805C419.453 15.31 419.182 15.222 418.991 15.046C418.801 14.8553 418.705 14.5987 418.705 14.276C418.705 13.9387 418.801 13.682 418.991 13.506C419.182 13.33 419.453 13.242 419.805 13.242H420.949V11.24C420.949 10.7853 421.067 10.4407 421.301 10.206C421.551 9.97133 421.895 9.854 422.335 9.854C422.775 9.854 423.113 9.97133 423.347 10.206C423.582 10.4407 423.699 10.7853 423.699 11.24V13.242H426.031C426.383 13.242 426.655 13.33 426.845 13.506C427.036 13.682 427.131 13.9387 427.131 14.276C427.131 14.5987 427.036 14.8553 426.845 15.046C426.655 15.222 426.383 15.31 426.031 15.31H423.699V19.842C423.699 20.546 423.853 21.074 424.161 21.426C424.469 21.778 424.968 21.954 425.657 21.954C425.907 21.954 426.127 21.932 426.317 21.888C426.508 21.844 426.677 21.8147 426.823 21.8C426.999 21.7853 427.146 21.844 427.263 21.976C427.381 22.0933 427.439 22.3427 427.439 22.724C427.439 23.0173 427.388 23.2813 427.285 23.516C427.197 23.736 427.029 23.89 426.779 23.978C426.589 24.0367 426.339 24.088 426.031 24.132C425.723 24.1907 425.452 24.22 425.217 24.22ZM433.531 24.22C432.417 24.22 431.449 23.9927 430.627 23.538C429.806 23.0833 429.168 22.438 428.713 21.602C428.259 20.7513 428.031 19.754 428.031 18.61C428.031 17.7447 428.156 16.9747 428.405 16.3C428.669 15.6107 429.043 15.024 429.527 14.54C430.011 14.0413 430.591 13.6673 431.265 13.418C431.94 13.154 432.695 13.022 433.531 13.022C434.646 13.022 435.614 13.2493 436.435 13.704C437.257 14.1587 437.895 14.804 438.349 15.64C438.804 16.476 439.031 17.466 439.031 18.61C439.031 19.4753 438.899 20.2527 438.635 20.942C438.386 21.6313 438.019 22.2253 437.535 22.724C437.051 23.208 436.472 23.582 435.797 23.846C435.123 24.0953 434.367 24.22 433.531 24.22ZM433.531 22.13C434.074 22.13 434.551 21.998 434.961 21.734C435.372 21.47 435.687 21.0813 435.907 20.568C436.142 20.04 436.259 19.3873 436.259 18.61C436.259 17.4367 436.01 16.564 435.511 15.992C435.013 15.4053 434.353 15.112 433.531 15.112C432.989 15.112 432.512 15.244 432.101 15.508C431.691 15.7573 431.368 16.146 431.133 16.674C430.913 17.1873 430.803 17.8327 430.803 18.61C430.803 19.7687 431.053 20.6487 431.551 21.25C432.05 21.8367 432.71 22.13 433.531 22.13Z" fill="#343A40"/>
<rect y="182" width="562" height="87.3519" rx="4" fill="#F8F9FA"/>
<path d="M0 186C0 183.791 1.80515 182 4.01429 182V182V269.352V269.352C1.80515 269.352 0 267.561 0 265.352V186Z" fill="#E9ECEF"/>
<path d="M519.85 182H558C560.209 182 562 183.791 562 186V267C562 269.209 560.209 271 558 271H519.85V182Z" fill="#F8F9FA"/>
<rect x="15.0535" y="206.722" width="330.175" height="13.1852" fill="#E9ECEF"/>
<rect x="15.0535" y="233.093" width="76.2714" height="13.1852" fill="#E9ECEF"/>
<rect y="303" width="562" height="87.3519" rx="4" fill="#F8F9FA"/>
<path d="M0 307C0 304.791 1.80515 303 4.01429 303V303V390.352V390.352C1.80515 390.352 0 388.561 0 386.352V307Z" fill="#E9ECEF"/>
<path d="M519.85 303H558C560.209 303 562 304.791 562 307V388C562 390.209 560.209 392 558 392H519.85V303Z" fill="#F8F9FA"/>
<rect x="15.0535" y="327.722" width="330.175" height="13.1852" fill="#E9ECEF"/>
<rect x="15.0535" y="354.093" width="76.2714" height="13.1852" fill="#E9ECEF"/>
<rect y="61" width="562" height="87.3519" rx="4" fill="#F8F9FA"/>
<path d="M0 65C0 62.7909 1.80515 61 4.01429 61V61V148.352V148.352C1.80515 148.352 0 146.561 0 144.352V65Z" fill="#E9ECEF"/>
<path d="M519.85 61H558C560.209 61 562 62.7909 562 65V146C562 148.209 560.209 150 558 150H519.85V61Z" fill="#F8F9FA"/>
<rect x="15.0535" y="85.7222" width="330.175" height="13.1852" fill="#E9ECEF"/>
<rect x="15.0535" y="112.093" width="76.2714" height="13.1852" fill="#E9ECEF"/>
</svg>
